<?xml version="1.0" encoding="utf-8"?>
<!-- Generator: Adobe Illustrator 19.0.0, SVG Export Plug-In . SVG Version: 6.00 Build 0)  -->
<svg version="1.1" xmlns="http://www.w3.org/2000/svg" xmlns:xlink="http://www.w3.org/1999/xlink" x="0px" y="0px"
	 viewBox="102 20.9 800 800" style="enable-background:new 102 20.9 800 800;" xml:space="preserve">
<style type="text/css">
	.st0{fill:#E2E2E2;}
	.st1{fill:#EB007D;}
	.st2{fill:#FFFFFF;}
	.st3{fill:#C90575;}
	.st4{fill:#324A5E;}
	.st5{fill:#ACB3BA;}
	.st6{fill:#FF7058;}
	.st7{fill:#E2CFC0;}
	.st8{opacity:0.2;fill:#EB007D;enable-background:new    ;}
	.st9{display:none;}
	.st10{display:inline;}
	.st11{display:inline;fill:#EB007D;}
	.st12{display:inline;fill:#E2CFC0;}
	.st13{display:inline;opacity:0.2;fill:#EB007D;enable-background:new    ;}
</style>
<g id="Layer_1">
	<g>
		<path class="st0" d="M181,266l29.7,155.2c0.2,1.2,1.4,2,2.6,1.7l261.7-50.1c1.2-0.2,2-1.4,1.7-2.6L447,215L181,266z"/>
		<path class="st1" d="M447.4,217.1l-5.1-26.4c-1.4-7.5-8.7-12.4-16.2-11l-238.9,45.8c-7.5,1.4-12.4,8.7-11,16.2l5.1,26.4
			L447.4,217.1z"/>
		<path class="st2" d="M337.2,227.5l-130.5,25c-5.3,1-10.5-2.5-11.5-7.8l0,0c-1-5.3,2.5-10.5,7.8-11.5l130.5-25
			c5.3-1,10.5,2.5,11.5,7.8l0,0C346,221.3,342.5,226.5,337.2,227.5z"/>
		<g>
			<circle class="st3" cx="416" cy="202.6" r="10"/>
			<circle class="st3" cx="387.7" cy="208" r="10"/>
		</g>
		<g>
			<path class="st4" d="M206.3,246.3l-1.9,0.4l-3.6-6.3l1.9-0.4l2.1,3.8l0.5-4.3l1.8-0.4l2.1,3.8l0.5-4.3l1.9-0.4l-1,7.1l-1.9,0.4
				l-1.9-3.5L206.3,246.3z"/>
			<path class="st4" d="M217.6,244.1l-1.9,0.4l-3.6-6.3l1.9-0.4l2.1,3.8l0.5-4.3l1.8-0.4l2.1,3.8l0.5-4.3l1.9-0.4l-1,7.1l-1.9,0.4
				l-1.9-3.5L217.6,244.1z"/>
			<path class="st4" d="M228.8,242l-1.9,0.4l-3.6-6.3l1.9-0.4l2.1,3.8l0.5-4.3l1.8-0.4l2.1,3.8l0.5-4.3l1.9-0.4l-1,7.1l-1.9,0.4
				l-1.9-3.5L228.8,242z"/>
		</g>
		<g>
			<path class="st5" d="M230.3,311.1l-7.1,1.4l-12.9-22.9l7.1-1.4l7.6,13.9l1.9-15.7l6.6-1.3l7.6,13.9l1.9-15.7l7.1-1.4l-3.6,26.1
				l-7.1,1.4l-7-12.5L230.3,311.1z"/>
			<path class="st5" d="M271.3,303.2l-7.1,1.4l-13-22.8l7.1-1.4l7.6,13.9l1.9-15.7l6.6-1.3l7.6,13.9l1.9-15.7l7.1-1.4l-3.6,26.1
				l-7.1,1.4l-7-12.5L271.3,303.2z"/>
			<path class="st5" d="M312.4,295.3l-7.1,1.4l-13-22.8l7.1-1.4l7.6,13.9l1.9-15.7l6.6-1.3l7.6,13.9l1.9-15.7l7.1-1.4l-3.6,26.1
				l-7.1,1.4l-7-12.5L312.4,295.3z"/>
		</g>
		<polygon class="st6" points="430.4,353.7 441.8,336.9 414.2,318.2 432.4,298.7 364.4,296.7 391.4,359.1 402.8,335 		"/>
	</g>
	<g>
		<g>
			<g>
				<path class="st1" d="M777,417c0,0,66.2,15.6,58.2,91.5c0,0-4.9,53.3-46.7,72.4l-42.7-70.3L777,417z"/>
				<path class="st7" d="M766.1,490.3c0,0,11.3-26,12.8-44c0,0,30.8,9,33.1,48.7c0,0,1,35.9-27.9,57.7c0,0-19.3-32.8-28.4-38.8
					c-9-6,0-2.4,0-2.4s9-15.1,39.3-12.1C794.9,499.5,786,492.7,766.1,490.3z"/>
			</g>
		</g>
		<g>
			<g>
				<path class="st1" d="M501.1,417c0,0-66.2,15.6-58.2,91.5c0,0,4.9,53.3,46.7,72.4l42.7-70.3L501.1,417z"/>
				<path class="st7" d="M512,490.3c0,0-11.3-26-12.8-44c0,0-30.8,9-33.1,48.7c0,0-0.9,35.9,27.9,57.7c0,0,19.4-32.8,28.4-38.8
					c9-6,0-2.4,0-2.4s-9-15.1-39.3-12.1C483.1,499.5,492.1,492.7,512,490.3z"/>
			</g>
		</g>
		<path class="st1" d="M600,689.4c-4.8,9.6,5.1,24.1,5.1,24.1c-1.3-15.5,13.4-21.8,13.4-21.8c-7.9,20.8,10.1,29.9,10.1,29.9
			c-5.1-19,7.6-26.6,7.6-26.6C729,683.3,765,646.3,765,646.3c68.9-63.4-1.5-140.9-1.5-140.9c19.3-35,16.2-67.9,16.2-67.9
			c-1-106-62.4-126.2-62.4-126.2l-2.5,27.9c-21.3-65.4-51.4-56.3-51.4-56.3c11.5,23.8,6.1,43.9,6.1,43.9s-6.1-43.9-100.7-34.5
			c0,0-40.6-0.7-45.3-4.7c-4.7-4.1-0.5,2.3,0,2.7c10.1,8.8,36.5,18.9,39.2,36.5H539c0,0,12.8,12.8,8.8,25.7c0,0-17.9-13.2-34.5-6.1
			c0,0,5.3,25.5-7.8,48.7c-13.7,24.2-27.5,56.6,15,110.3l0.3,1c0,0-70.5,77.6-1.5,140.9c0,0,34,31.8,77.1,41.4L600,689.4z"/>
		<path class="st7" d="M640.8,674.2c-27.4-3-34.5-17.2-34.5-17.2c-72.6-9.6-81.8-71.5-74.5-97.3c6.6-23.6,37.5-49.2,37.5-49.2
			c-23.3-15.2-38-39-38-39c-26.9-54.8,13.7-90.7,13.7-90.7c46.6-42.1,87.7,5.1,87.7,5.1c4.6,5.6,10.1,4.6,10.1,4.6h-1.3
			c0,0,5.6,1,10.1-4.6c0,0,41.1-47.1,87.7-5.1c0,0,40.6,36,13.7,90.7c0,0-14.7,23.8-38,39c0,0,30.9,25.6,37.5,49.2
			c7.3,25.9-2.9,92.8-74.5,97.3c0,0-7.1,14.2-34.5,17.2H640.8z"/>
		<path class="st8" d="M678.3,657.4c71.6-4.6,81.8-71.5,74.5-97.3c-6.6-23.6-37.5-49.2-37.5-49.2S789.6,609.6,678.3,657.4z"/>
		<g>
			<g>
				<path class="st1" d="M569.2,407.4c0,0,1.5-1.3,4-2.7c1.3-0.7,2.8-1.4,4.5-2.1c1.7-0.7,3.5-1.3,5.4-1.7c1-0.2,1.9-0.4,2.9-0.5
					c0.9-0.2,1.9-0.2,2.8-0.3c0.9-0.1,1.8-0.1,2.7,0c0.8,0,1.7,0.2,2.4,0.4c0.4,0.1,0.7,0.1,1.1,0.3c0.3,0.1,0.6,0.3,0.9,0.4
					c0.6,0.2,1.1,0.5,1.4,0.8c0.7,0.5,1.1,0.8,1.1,0.8l-0.1,0.2c0,0-0.4-0.2-1.2-0.5c-0.4-0.2-0.9-0.3-1.4-0.4
					c-0.5-0.1-1.2-0.3-1.9-0.3c-0.7-0.1-1.5-0.1-2.3,0c-0.8,0-1.6,0.1-2.5,0.2c-0.9,0.1-1.8,0.2-2.7,0.4c-0.9,0.1-1.8,0.4-2.7,0.6
					c-7.4,1.7-14.3,4.8-14.3,4.8L569.2,407.4z"/>
				<path class="st1" d="M720.4,409.5c0,0-1.9-0.2-4.7-0.9c-1.4-0.3-3-0.6-4.7-1.1c-0.8-0.2-1.7-0.4-2.6-0.6
					c-0.9-0.2-1.8-0.4-2.7-0.6c-0.9-0.2-1.8-0.5-2.7-0.6c-0.9-0.2-1.7-0.4-2.6-0.5c-0.8-0.1-1.6-0.3-2.4-0.4
					c-0.8-0.1-1.5-0.2-2.1-0.2c-0.7-0.1-1.3-0.1-1.8-0.1c-0.6,0-1.1,0-1.4,0.1c-0.8,0.1-1.3,0.2-1.3,0.2l-0.1-0.2
					c0,0,0.4-0.2,1.2-0.5c0.4-0.2,0.9-0.3,1.4-0.4c0.6-0.2,1.2-0.3,1.9-0.3c0.7-0.1,1.5-0.1,2.3-0.1c0.8,0,1.7,0.1,2.6,0.2
					c0.9,0.1,1.8,0.2,2.7,0.4c0.9,0.1,1.8,0.4,2.8,0.6c7.4,1.8,14.3,5,14.3,5L720.4,409.5z"/>
			</g>
		</g>
		<g>
			<g>
				<path class="st1" d="M607.5,460.7c-1,3.6-4.2,6.2-8.1,6.2c-4.7,0-8.4-3.8-8.4-8.4c0-3.2,1.8-5.9,4.4-7.4
					c-1.4-0.3-2.9-0.5-4.4-0.5c-10.3,0-18.6,8.3-18.6,18.6c0,10.3,8.3,18.6,18.6,18.6c10.3,0,18.6-8.3,18.6-18.6
					C609.5,466.1,608.8,463.2,607.5,460.7z"/>
				<path class="st1" d="M717,460.7c-1,3.6-4.2,6.2-8.1,6.2c-4.7,0-8.5-3.8-8.5-8.4c0-3.2,1.8-5.9,4.4-7.4c-1.4-0.3-2.9-0.5-4.4-0.5
					c-10.3,0-18.6,8.3-18.6,18.6c0,10.3,8.3,18.6,18.6,18.6c10.3,0,18.6-8.3,18.6-18.6C719,466.1,718.3,463.2,717,460.7z"/>
			</g>
		</g>
		<path class="st7" d="M581.4,299.5c0,0,50.2-8.1,79.6,24.3C661,323.9,648.8,307.7,581.4,299.5z"/>
		<path class="st7" d="M730.4,323.9c0,0,38.6,24.9,41.1,95.3C771.5,419.2,756.3,347.2,730.4,323.9z"/>
		<path class="st8" d="M651.7,385.7c0,0,105.9-51.8,92.3,97.9c-0.8,9.2,9.1-12.4,9.1-12.4c26.9-54.8-13.7-90.7-13.7-90.7
			c-46.6-42.1-87.7,5.1-87.7,5.1"/>
		<path class="st1" d="M554.5,603.1c0,0,118.2,0,163.7-64.6C718.2,538.5,720.4,690.1,554.5,603.1z"/>
		<path class="st8" d="M607.9,515.8c0-9.2,15.1-16.9,34.3-16.9c19.2,0,34.4,7.1,34.4,16.3c0,7.4-9.7,14-23.6,16.2
			c-3.4,0.5-7-1.2-10.7-1.2c-2.7,0-6-0.3-8.5,0c-1,0.1-1.2,0.9-2.2,0.7C617.5,528.8,607.9,523.2,607.9,515.8z"/>
		<g>
			<g>
				<path class="st1" d="M674.7,521l-33.2,9.4C641.5,530.4,664.1,535.9,674.7,521z"/>
				<path class="st1" d="M609.7,521.2l33.3,8.8C643,530.1,620.5,536,609.7,521.2z"/>
			</g>
		</g>
		<path class="st8" d="M622.7,660.5c0,4.2,8.4,7.7,18.8,7.7c10.4,0,18.8-3.4,18.8-7.7c0-4.2-8.4-7.6-18.8-7.6
			C631.1,652.9,622.7,656.3,622.7,660.5z"/>
	</g>
</g>
<g id="Layer_1_copy" class="st9">
	<g class="st10">
		<g>
			<path class="st1" d="M801.3,315.8c-3.7-1.3-5.1-4.7-3.9-8.4c1.3-3.7,4.5-5.5,8.1-4.3c3.5,1.2,5.1,4.6,3.9,8.4
				C808.1,315.1,804.8,317,801.3,315.8z"/>
			<path class="st1" d="M780.5,308.8c-3.7-1.3-5.1-4.8-3.9-8.4c1.3-3.7,4.5-5.5,8.1-4.3c3.5,1.2,5.1,4.7,3.9,8.4
				C787.3,308.1,784,309.9,780.5,308.8z"/>
			<path class="st1" d="M759.7,301.7c-3.7-1.3-5.1-4.7-3.9-8.4c1.3-3.7,4.5-5.5,8.1-4.3c3.5,1.2,5.1,4.6,3.9,8.4
				C766.6,301,763.3,302.9,759.7,301.7z"/>
		</g>
	</g>
	<g class="st10">
		<g>
			<g>
				<path class="st1" d="M340.2,262.3l-25,24.5l-1.4-4.4l21.2-20.3l0-0.1l-29-4.8l-1.4-4.4l34.5,6.1L340.2,262.3z"/>
				<path class="st1" d="M314.1,291l-2.9-9.2l19.1-18.3l-26.1-4.3l-2.9-9.2l39.5,7l1.9,6.1L314.1,291z M336.9,260.7l0.4,1.3l0.4-0.4
					l-0.3-0.9L336.9,260.7z"/>
			</g>
			<g>
				<path class="st1" d="M307.5,292l-32.4-41l4.4-1.3l32.3,41L307.5,292z"/>
				<polygon class="st1" points="315.5,291.9 306.7,294.6 271.4,249.9 280.3,247.1 				"/>
			</g>
			<g>
				<path class="st1" d="M249.1,286.6l25.1-24.5l1.4,4.4l-21.4,20.4l0,0.1l29.2,4.8l1.4,4.4l-34.5-6.1L249.1,286.6z"/>
				<path class="st1" d="M287.9,299.1l-39.4-6.9l-1.9-6.2l28.6-28l2.9,9.2l-19.3,18.4l26.3,4.3L287.9,299.1z M251.9,288.2l0.3,0
					l-0.4-1.2l-0.2,0.2L251.9,288.2z"/>
			</g>
		</g>
	</g>
	<g class="st10">
		<g>
			<path class="st1" d="M710.4,370.5c0,0,66.2,15.6,58.2,91.5c0,0-4.9,53.3-46.7,72.4l-42.7-70.3L710.4,370.5z"/>
			<path class="st7" d="M699.5,443.9c0,0,11.3-26,12.8-44c0,0,30.8,9,33.1,48.7c0,0,1,35.9-27.9,57.7c0,0-19.3-32.8-28.4-38.8
				c-9-6,0-2.4,0-2.4s9-15.1,39.3-12.1C728.3,453.1,719.3,446.2,699.5,443.9z"/>
		</g>
	</g>
	<g class="st10">
		<g>
			<path class="st1" d="M434.5,370.5c0,0-66.2,15.6-58.2,91.5c0,0,4.9,53.3,46.7,72.4l42.7-70.3L434.5,370.5z"/>
			<path class="st7" d="M445.3,443.9c0,0-11.3-26-12.8-44c0,0-30.8,9-33.1,48.7c0,0-0.9,35.9,27.9,57.7c0,0,19.4-32.8,28.4-38.8
				c9-6,0-2.4,0-2.4s-9-15.1-39.3-12.1C416.5,453.1,425.5,446.2,445.3,443.9z"/>
		</g>
	</g>
	<path class="st11" d="M533.3,642.9c-4.8,9.6,5.1,24.1,5.1,24.1c-1.3-15.5,13.4-21.8,13.4-21.8C544,666,562,675.1,562,675.1
		c-5.1-19,7.6-26.6,7.6-26.6c92.8-11.7,128.8-48.7,128.8-48.7c68.9-63.4-1.5-140.9-1.5-140.9c19.3-35,16.2-67.9,16.2-67.9
		c-1-106-62.4-126.2-62.4-126.2l-2.5,27.9c-21.3-65.4-51.4-56.3-51.4-56.3c11.5,23.8,6.1,43.9,6.1,43.9s-6.1-43.9-100.7-34.5
		c0,0-40.6-0.7-45.3-4.7c-4.7-4.1-0.5,2.3,0,2.7c10.1,8.8,36.5,18.9,39.2,36.5h-23.6c0,0,12.8,12.8,8.8,25.7c0,0-17.9-13.2-34.5-6.1
		c0,0,5.3,25.5-7.8,48.7c-13.7,24.2-27.5,56.6,15,110.3l0.3,1c0,0-70.5,77.6-1.5,140.9c0,0,34,31.8,77.1,41.4L533.3,642.9z"/>
	<path class="st12" d="M574.2,627.7c-27.4-3-34.5-17.2-34.5-17.2c-72.6-9.6-81.8-71.5-74.5-97.3c6.6-23.6,37.5-49.2,37.5-49.2
		c-23.3-15.2-38-39-38-39c-26.9-54.8,13.7-90.7,13.7-90.7c46.6-42.1,87.7,5.1,87.7,5.1c4.6,5.6,10.1,4.6,10.1,4.6h-1.3
		c0,0,5.6,1,10.1-4.6c0,0,41.1-47.1,87.7-5.1c0,0,40.6,36,13.7,90.7c0,0-14.7,23.8-38,39c0,0,30.9,25.6,37.5,49.2
		c7.3,25.9-2.9,92.8-74.5,97.3c0,0-7.1,14.2-34.5,17.2H574.2z"/>
	<path class="st13" d="M611.7,611c71.6-4.6,81.8-71.5,74.5-97.3c-6.6-23.6-37.5-49.2-37.5-49.2S723,563.2,611.7,611z"/>
	<g class="st10">
		<g>
			<path class="st1" d="M502.6,360.9c0,0,1.5-1.3,4-2.7c1.3-0.7,2.8-1.4,4.5-2.1c1.7-0.7,3.5-1.3,5.4-1.7c1-0.2,1.9-0.4,2.9-0.5
				c0.9-0.2,1.9-0.2,2.8-0.3c0.9-0.1,1.8-0.1,2.7,0c0.8,0,1.7,0.2,2.4,0.4c0.4,0.1,0.7,0.1,1.1,0.3c0.3,0.1,0.6,0.3,0.9,0.4
				c0.6,0.2,1.1,0.5,1.4,0.8c0.7,0.5,1.1,0.8,1.1,0.8l-0.1,0.2c0,0-0.4-0.2-1.2-0.5c-0.4-0.2-0.9-0.3-1.4-0.4
				c-0.5-0.1-1.2-0.3-1.9-0.3c-0.7-0.1-1.5-0.1-2.3,0c-0.8,0-1.6,0.1-2.5,0.2c-0.9,0.1-1.8,0.2-2.7,0.4c-0.9,0.1-1.8,0.4-2.7,0.6
				c-7.4,1.7-14.3,4.8-14.3,4.8L502.6,360.9z"/>
			<path class="st1" d="M653.8,363c0,0-1.9-0.2-4.7-0.9c-1.4-0.3-3-0.6-4.7-1.1c-0.8-0.2-1.7-0.4-2.6-0.6c-0.9-0.2-1.8-0.4-2.7-0.6
				c-0.9-0.2-1.8-0.5-2.7-0.6c-0.9-0.2-1.7-0.4-2.6-0.5c-0.8-0.1-1.6-0.3-2.4-0.4c-0.8-0.1-1.5-0.2-2.1-0.2
				c-0.7-0.1-1.3-0.1-1.8-0.1c-0.6,0-1.1,0-1.4,0.1c-0.8,0.1-1.3,0.2-1.3,0.2l-0.1-0.2c0,0,0.4-0.2,1.2-0.5c0.4-0.2,0.9-0.3,1.4-0.4
				c0.6-0.2,1.2-0.3,1.9-0.3c0.7-0.1,1.5-0.1,2.3-0.1c0.8,0,1.7,0.1,2.6,0.2c0.9,0.1,1.8,0.2,2.7,0.4c0.9,0.1,1.8,0.4,2.8,0.6
				c7.4,1.8,14.3,5,14.3,5L653.8,363z"/>
		</g>
	</g>
	<g class="st10">
		<g>
			<path class="st1" d="M540.8,414.2c-1,3.6-4.2,6.2-8.1,6.2c-4.7,0-8.4-3.8-8.4-8.4c0-3.2,1.8-5.9,4.4-7.4
				c-1.4-0.3-2.9-0.5-4.4-0.5c-10.3,0-18.6,8.3-18.6,18.6c0,10.3,8.3,18.6,18.6,18.6c10.3,0,18.6-8.3,18.6-18.6
				C542.9,419.6,542.1,416.7,540.8,414.2z"/>
			<path class="st1" d="M650.3,414.2c-1,3.6-4.2,6.2-8.1,6.2c-4.7,0-8.5-3.8-8.5-8.4c0-3.2,1.8-5.9,4.4-7.4
				c-1.4-0.3-2.9-0.5-4.4-0.5c-10.3,0-18.6,8.3-18.6,18.6c0,10.3,8.3,18.6,18.6,18.6c10.3,0,18.6-8.3,18.6-18.6
				C652.4,419.6,651.6,416.7,650.3,414.2z"/>
		</g>
	</g>
	<path class="st12" d="M514.8,253.1c0,0,50.2-8.1,79.6,24.3C594.3,277.4,582.2,261.2,514.8,253.1z"/>
	<path class="st12" d="M663.8,277.4c0,0,38.6,24.9,41.1,95.3C704.9,372.7,689.6,300.8,663.8,277.4z"/>
	<path class="st13" d="M585.1,339.3c0,0,105.9-51.8,92.3,97.9c-0.8,9.2,9.1-12.4,9.1-12.4c26.9-54.8-13.7-90.7-13.7-90.7
		c-46.6-42.1-87.7,5.1-87.7,5.1"/>
	<path class="st11" d="M487.8,556.7c0,0,118.2,0,163.7-64.6C651.6,492,653.8,643.7,487.8,556.7z"/>
	<g class="st10">
		<g>
			<g>
				<g>
					<path class="st1" d="M162.7,250.9c3.5-12,11.1-22.1,22.6-30.3c11.6-8.2,27.6-15.6,48.2-22.4c6.3-2.1,11-4.5,13.9-7.1
						c3-2.7,3.4-7,1.5-12.9l26.8-8.8c2,6,4.9,9.1,8.9,9.5c4,0.4,9.1-0.4,15.5-2.5c19.4-6.4,35.9-9.6,49.6-9.8
						c13.7-0.1,25.4,3.6,35,11.3c9.6,7.7,17.3,20.3,23.1,37.7l-22.8,7.5c-2.8-8.6-7.1-14.2-12.8-16.6c-5.7-2.4-12.6-2.7-20.8-1
						c-8.2,1.7-20.9,5.4-38.2,11.1c-5.2,1.7-9.7,2.7-13.4,3c-3.8,0.3-8.1-1-13-3.7c-5-2.7-10.2-7.8-15.8-15.1
						c0,9.1-1.1,16.3-3.5,21.4c-2.4,5.1-5.1,8.7-8.3,10.7c-3.2,2-7.4,3.9-12.5,5.6c-18.4,6-31.7,10.9-39.9,14.5
						c-8.2,3.6-13.9,8.1-17.3,13.5c-3.4,5.4-3.6,12.4-0.8,21l-22.8,7.5C160.3,277.6,159.2,262.9,162.7,250.9z"/>
				</g>
			</g>
			<g>
				<g>
					<path class="st1" d="M176.9,328.2l22.8-7.5c2.8,8.6,7.2,14.1,13.1,16.5c5.9,2.3,13.2,2.5,21.9,0.6c8.7-1.9,22.3-5.9,40.8-11.9
						c5.2-1.7,9.7-2.7,13.4-3c3.7-0.3,8.1,1,13,3.7c4.9,2.7,10.1,7.8,15.5,15.2c0.2-9.2,1.4-16.4,3.8-21.5c2.4-5.1,5.1-8.7,8.3-10.7
						c3.2-2,7.3-3.9,12.5-5.6c17.3-5.7,29.7-10.2,37.3-13.7c7.6-3.4,13-7.8,16.1-13.1c3.2-5.3,3.3-12.3,0.5-20.9l22.8-7.5
						c5.7,17.5,7,32.2,3.8,44.1c-3.2,11.9-10.4,21.9-21.5,29.9c-11.1,8-26.3,15.2-45.8,21.6c-6.3,2.1-11,4.5-13.9,7.1
						c-2.9,2.7-3.4,7-1.5,12.9l-23.4,7.7c-2-6-8.3-8-12.3-8.4c-4-0.4-9.1,0.4-15.4,2.5c-20.6,6.8-37.9,10.3-52.1,10.6
						c-14.2,0.3-26.2-3.4-36.2-10.9C190.4,358.2,182.6,345.7,176.9,328.2z"/>
				</g>
			</g>
			<polygon class="st1" points="316.4,372.1 342.5,388.2 339.7,364.4 			"/>
		</g>
	</g>
	<g class="st10">
		<g>
			<g>
				<path class="st1" d="M840.9,312.1l-10.4-3.4c1.3-4,1.2-7.2-0.3-9.6c-1.5-2.5-4.2-4.5-7.9-6.2s-9.8-3.9-18.3-6.7
					c-2.4-0.8-4.3-1.6-5.7-2.5c-1.5-0.9-2.7-2.6-3.8-4.9c-1.1-2.4-1.6-5.6-1.6-9.8c-2.6,3.3-5,5.7-7.2,6.9c-2.3,1.3-4.2,1.8-6,1.7
					c-1.7-0.1-3.7-0.6-6.1-1.4c-7.9-2.6-13.7-4.3-17.5-5.1c-3.7-0.8-6.9-0.6-9.5,0.5c-2.6,1.1-4.6,3.6-5.9,7.6l-10.4-3.4
					c2.6-8,6.2-13.8,10.6-17.3c4.4-3.5,9.8-5.2,16-5.2c6.3,0.1,13.8,1.6,22.7,4.5c2.9,1,5.3,1.3,7.1,1.2c1.8-0.2,3.2-1.6,4.1-4.4
					l12.3,4c-0.9,2.7-0.7,4.7,0.7,5.9c1.4,1.2,3.5,2.3,6.4,3.3c9.4,3.1,16.8,6.5,22.1,10.2c5.3,3.7,8.8,8.4,10.4,13.9
					C844,297.4,843.5,304.1,840.9,312.1z"/>
			</g>
			<g>
				<path class="st1" d="M825.1,344.5c-4.6,3.5-10.1,5.1-16.6,5c-6.5-0.1-14.4-1.7-23.9-4.8c-2.9-0.9-5.3-1.3-7.1-1.2
					c-1.8,0.2-4.7,1.1-5.6,3.9l-10.7-3.5c0.9-2.7,0.7-4.7-0.7-5.9c-1.4-1.2-3.5-2.3-6.4-3.3c-8.9-2.9-15.9-6.2-21-9.9
					c-5.1-3.7-8.4-8.2-9.8-13.7c-1.5-5.5-0.9-12.2,1.7-20.2l10.4,3.4c-1.3,4-1.2,7.1,0.2,9.6c1.4,2.4,3.9,4.4,7.4,6
					c3.5,1.6,9.2,3.7,17.1,6.3c2.4,0.8,4.3,1.6,5.7,2.5c1.4,0.9,2.7,2.6,3.8,4.9c1.1,2.4,1.7,5.6,1.7,9.9c2.5-3.4,4.8-5.7,7.1-6.9
					c2.3-1.3,4.3-1.8,6-1.7c1.7,0.1,3.8,0.6,6.1,1.4c8.5,2.8,14.7,4.6,18.7,5.5c4,0.9,7.3,0.8,10-0.3c2.7-1.1,4.7-3.6,6-7.5
					l10.4,3.4C833.3,335.3,829.7,341,825.1,344.5z"/>
			</g>
			<polygon class="st1" points="772,347.4 760,354.8 761.3,343.8 			"/>
		</g>
	</g>
	<path class="st13" d="M541.2,469.4c0-9.2,15.1-16.9,34.3-16.9c19.2,0,34.4,7.1,34.4,16.3c0,7.4-9.7,14-23.6,16.2
		c-3.4,0.5-7-1.2-10.7-1.2c-2.7,0-6-0.3-8.5,0c-1,0.1-1.2,0.9-2.2,0.7C550.9,482.3,541.2,476.7,541.2,469.4z"/>
	<g class="st10">
		<g>
			<path class="st1" d="M608,474.5l-33.2,9.4C574.9,483.9,597.5,489.5,608,474.5z"/>
			<path class="st1" d="M543.1,474.8l33.3,8.8C576.4,483.6,553.9,489.5,543.1,474.8z"/>
		</g>
	</g>
	<path class="st13" d="M556.1,614.1c0,4.2,8.4,7.7,18.8,7.7c10.4,0,18.8-3.4,18.8-7.7c0-4.2-8.4-7.6-18.8-7.6
		C564.5,606.4,556.1,609.8,556.1,614.1z"/>
</g>
</svg>
